<?xml version="1.0" standalone="no"?>
<!DOCTYPE svg PUBLIC "-//W3C//DTD SVG 20010904//EN"
 "http://www.w3.org/TR/2001/REC-SVG-20010904/DTD/svg10.dtd">
<svg version="1.0" xmlns="http://www.w3.org/2000/svg"
 width="225.000000pt" height="225.000000pt" viewBox="0 0 225.000000 225.000000"
 preserveAspectRatio="xMidYMid meet">
<metadata>
Created by potrace 1.14, written by Peter Selinger 2001-2017
</metadata>
<g transform="translate(0.000000,225.000000) scale(0.100000,-0.100000)"
fill="#000000" stroke="none">
<path d="M714 1359 c-65 -19 -127 -71 -158 -132 -68 -134 -15 -291 119 -353
50 -24 52 -24 451 -24 l402 0 53 28 c114 59 165 187 127 314 -15 50 -78 122
-132 151 -40 22 -49 22 -436 24 -221 1 -409 -2 -426 -8z m354 -18 l82 -1 0
-235 0 -235 -196 0 c-235 0 -260 6 -330 75 -40 40 -54 62 -64 103 -24 101 16
203 101 259 38 25 53 28 153 33 61 3 125 4 141 4 17 -1 67 -2 113 -3z m252
-137 l0 -56 67 56 c63 53 71 56 121 56 l54 0 -56 -46 c-31 -26 -56 -51 -56
-56 0 -6 29 -50 65 -99 36 -48 65 -91 65 -94 0 -3 -18 -5 -39 -5 -38 0 -42 3
-92 75 -29 41 -56 75 -60 75 -4 0 -21 -12 -38 -26 -27 -22 -31 -32 -31 -75 l0
-49 -35 0 -35 0 0 150 0 150 35 0 35 0 0 -56z"/>
<path d="M778 1110 c-43 -76 -78 -141 -78 -144 0 -3 15 -6 34 -6 32 0 37 4 76
77 24 42 50 90 60 105 l17 29 59 -106 c58 -104 59 -105 95 -105 l37 0 -81 145
c-77 136 -84 145 -112 145 -28 0 -35 -9 -107 -140z"/>
</g>
</svg>
